<mxfile host="app.diagrams.net" modified="2023-11-11T02:38:10.085Z" agent="Mozilla/5.0 (Windows NT 10.0; Win64; x64; rv:109.0) Gecko/20100101 Firefox/119.0" version="22.1.0" etag="24lKLaxNjwTMNwAF5dcJ" type="github">
  <diagram name="PÃ¡gina-1" id="4JfrF1HE6Jq-wGwuzRwm">
    <mxGraphModel>
      <root>
        <mxCell id="0" />
        <mxCell id="1" parent="0" />
      </root>
    </mxGraphModel>
  </diagram>
</mxfile>
